<svg width="20" height="20" viewBox="0 0 20 20" fill="none" xmlns="http://www.w3.org/2000/svg">
<path d="M7.57515 7.49998C7.77107 6.94303 8.15778 6.4734 8.66678 6.17425C9.17579 5.87511 9.77423 5.76576 10.3561 5.86557C10.938 5.96538 11.4658 6.26791 11.8461 6.71958C12.2263 7.17125 12.4344 7.74291 12.4335 8.33331C12.4335 9.99998 9.93349 10.8333 9.93349 10.8333M10.0001 14.1666H10.0084M18.3334 9.99996C18.3334 14.6023 14.6025 18.3333 10.0001 18.3333C5.39771 18.3333 1.66675 14.6023 1.66675 9.99996C1.66675 5.39759 5.39771 1.66663 10.0001 1.66663C14.6025 1.66663 18.3334 5.39759 18.3334 9.99996Z" stroke="#9DA6B0" stroke-width="1.67" stroke-linecap="round" stroke-linejoin="round"/>
</svg>
