<svg width="22" height="20" viewBox="0 0 22 20" fill="none" xmlns="http://www.w3.org/2000/svg">
<path d="M10 18.25C7.3 18.25 4.675 16.9 3.1 14.5H7V13H1V19H2.5V16.225C4.375 18.475 7.075 19.75 10 19.75V18.25ZM21.25 15.25V13.75H19.675C19.6 13.3 19.375 12.85 19.15 12.4L20.275 11.275L19.225 10.225L18.1 11.35C17.725 11.125 17.275 10.9 16.75 10.825V9.25H15.25V10.825C14.8 10.9 14.35 11.125 13.9 11.35L12.775 10.225L11.725 11.275L12.85 12.4C12.625 12.775 12.4 13.225 12.325 13.75H10.75V15.25H12.325C12.4 15.7 12.625 16.15 12.85 16.6L11.725 17.725L12.775 18.775L13.9 17.65C14.275 17.875 14.725 18.1 15.25 18.175V19.75H16.75V18.175C17.2 18.1 17.65 17.875 18.1 17.65L19.225 18.775L20.275 17.725L19.15 16.6C19.375 16.225 19.6 15.775 19.675 15.25H21.25ZM16 16.75C14.725 16.75 13.75 15.775 13.75 14.5C13.75 13.225 14.725 12.25 16 12.25C17.275 12.25 18.25 13.225 18.25 14.5C18.25 15.775 17.275 16.75 16 16.75ZM13 5.5H16.9C14.425 1.675 9.325 0.625 5.5 3.1C3.175 4.6 1.75 7.225 1.75 10H0.25C0.25 4.6 4.6 0.25 10 0.25C12.925 0.25 15.625 1.525 17.5 3.775V1H19V7H13V5.5Z" fill="#6072E5"/>
</svg>
