<svg width="22" height="23" viewBox="0 0 22 23" fill="none" xmlns="http://www.w3.org/2000/svg">
<path d="M10.456 1.66476C10.5042 1.56113 10.581 1.47343 10.6774 1.41197C10.7738 1.35052 10.8857 1.31787 11 1.31787C11.1143 1.31787 11.2262 1.35052 11.3226 1.41197C11.419 1.47343 11.4958 1.56113 11.544 1.66476L14.408 7.80176C14.4676 7.92949 14.5703 8.03216 14.698 8.09176L20.835 10.9558C20.9386 11.004 21.0263 11.0808 21.0878 11.1772C21.1492 11.2735 21.1819 11.3855 21.1819 11.4998C21.1819 11.6141 21.1492 11.726 21.0878 11.8224C21.0263 11.9187 20.9386 11.9955 20.835 12.0438L14.698 14.9078C14.5703 14.9674 14.4676 15.07 14.408 15.1978L11.544 21.3348C11.4958 21.4384 11.419 21.5261 11.3226 21.5876C11.2262 21.649 11.1143 21.6817 11 21.6817C10.8857 21.6817 10.7738 21.649 10.6774 21.5876C10.581 21.5261 10.5042 21.4384 10.456 21.3348L7.59201 15.1978C7.5324 15.07 7.42974 14.9674 7.30201 14.9078L1.16501 12.0438C1.06137 11.9955 0.973672 11.9187 0.912217 11.8224C0.850763 11.726 0.818115 11.6141 0.818115 11.4998C0.818115 11.3855 0.850763 11.2735 0.912217 11.1772C0.973672 11.0808 1.06137 11.004 1.16501 10.9558L7.30201 8.09176C7.42974 8.03216 7.5324 7.92949 7.59201 7.80176L10.456 1.66476Z" stroke="#6072E5" stroke-width="1.5" stroke-linecap="round" stroke-linejoin="round"/>
</svg>
