<svg width="20" height="20" viewBox="0 0 20 20" fill="none" xmlns="http://www.w3.org/2000/svg">
<path d="M4.16675 13.3332V10.8332C4.16675 10.6122 4.25455 10.4002 4.41083 10.2439C4.56711 10.0876 4.77907 9.99984 5.00008 9.99984H15.0001C15.2211 9.99984 15.4331 10.0876 15.5893 10.2439C15.7456 10.4002 15.8334 10.6122 15.8334 10.8332V13.3332M10.0001 9.99984V6.6665M14.1667 13.3332H17.5001C17.9603 13.3332 18.3334 13.7063 18.3334 14.1665V17.4998C18.3334 17.9601 17.9603 18.3332 17.5001 18.3332H14.1667C13.7065 18.3332 13.3334 17.9601 13.3334 17.4998V14.1665C13.3334 13.7063 13.7065 13.3332 14.1667 13.3332ZM2.50008 13.3332H5.83341C6.29365 13.3332 6.66675 13.7063 6.66675 14.1665V17.4998C6.66675 17.9601 6.29365 18.3332 5.83341 18.3332H2.50008C2.03984 18.3332 1.66675 17.9601 1.66675 17.4998V14.1665C1.66675 13.7063 2.03984 13.3332 2.50008 13.3332ZM8.33342 1.6665H11.6667C12.127 1.6665 12.5001 2.0396 12.5001 2.49984V5.83317C12.5001 6.29341 12.127 6.6665 11.6667 6.6665H8.33342C7.87318 6.6665 7.50008 6.29341 7.50008 5.83317V2.49984C7.50008 2.0396 7.87318 1.6665 8.33342 1.6665Z" stroke="#9DA6B0" stroke-width="1.67" stroke-linecap="round" stroke-linejoin="round"/>
</svg>
