<svg width="19" height="20" viewBox="0 0 19 20" fill="none" xmlns="http://www.w3.org/2000/svg">
<path d="M16.5 6.25008V5.00008C16.5 4.55805 16.3244 4.13413 16.0118 3.82157C15.6993 3.50901 15.2754 3.33341 14.8333 3.33341H3.16667C2.72464 3.33341 2.30072 3.50901 1.98816 3.82157C1.67559 4.13413 1.5 4.55805 1.5 5.00008V16.6667C1.5 17.1088 1.67559 17.5327 1.98816 17.8453C2.30072 18.1578 2.72464 18.3334 3.16667 18.3334H6.08333M12.3333 1.66675V5.00008M5.66667 1.66675V5.00008M1.5 8.33342H5.66667M13.5833 14.5834L12.3333 13.5417V11.6667M17.3333 13.3334C17.3333 14.6595 16.8066 15.9313 15.8689 16.8689C14.9312 17.8066 13.6594 18.3334 12.3333 18.3334C11.0073 18.3334 9.73548 17.8066 8.7978 16.8689C7.86012 15.9313 7.33333 14.6595 7.33333 13.3334C7.33333 12.0073 7.86012 10.7356 8.7978 9.79788C9.73548 8.8602 11.0073 8.33342 12.3333 8.33342C13.6594 8.33342 14.9312 8.8602 15.8689 9.79788C16.8066 10.7356 17.3333 12.0073 17.3333 13.3334Z" stroke="white" stroke-width="1.67" stroke-linecap="round" stroke-linejoin="round"/>
</svg>
