<svg width="18" height="20" viewBox="0 0 18 20" fill="none" xmlns="http://www.w3.org/2000/svg">
<path d="M9.18334 1.66663H8.81667C8.37464 1.66663 7.95072 1.84222 7.63816 2.15478C7.3256 2.46734 7.15 2.89127 7.15 3.33329V3.48329C7.1497 3.77556 7.07255 4.06262 6.92628 4.31566C6.78002 4.5687 6.56978 4.77882 6.31667 4.92496L5.95834 5.13329C5.70497 5.27957 5.41756 5.35658 5.125 5.35658C4.83244 5.35658 4.54503 5.27957 4.29167 5.13329L4.16667 5.06663C3.78422 4.84601 3.32987 4.78616 2.90334 4.90022C2.47681 5.01427 2.11296 5.29291 1.89167 5.67496L1.70833 5.99163C1.48772 6.37407 1.42787 6.82843 1.54192 7.25496C1.65598 7.68149 1.93461 8.04533 2.31667 8.26663L2.44167 8.34996C2.69356 8.49539 2.90302 8.7042 3.04921 8.95565C3.1954 9.2071 3.27325 9.49244 3.275 9.78329V10.2083C3.27617 10.502 3.19971 10.7908 3.05337 11.0454C2.90703 11.3 2.69601 11.5115 2.44167 11.6583L2.31667 11.7333C1.93461 11.9546 1.65598 12.3184 1.54192 12.745C1.42787 13.1715 1.48772 13.6258 1.70833 14.0083L1.89167 14.325C2.11296 14.707 2.47681 14.9856 2.90334 15.0997C3.32987 15.2138 3.78422 15.1539 4.16667 14.9333L4.29167 14.8666C4.54503 14.7203 4.83244 14.6433 5.125 14.6433C5.41756 14.6433 5.70497 14.7203 5.95834 14.8666L6.31667 15.075C6.56978 15.2211 6.78002 15.4312 6.92628 15.6843C7.07255 15.9373 7.1497 16.2244 7.15 16.5166V16.6666C7.15 17.1087 7.3256 17.5326 7.63816 17.8451C7.95072 18.1577 8.37464 18.3333 8.81667 18.3333H9.18334C9.62536 18.3333 10.0493 18.1577 10.3618 17.8451C10.6744 17.5326 10.85 17.1087 10.85 16.6666V16.5166C10.8503 16.2244 10.9275 15.9373 11.0737 15.6843C11.22 15.4312 11.4302 15.2211 11.6833 15.075L12.0417 14.8666C12.295 14.7203 12.5824 14.6433 12.875 14.6433C13.1676 14.6433 13.455 14.7203 13.7083 14.8666L13.8333 14.9333C14.2158 15.1539 14.6701 15.2138 15.0967 15.0997C15.5232 14.9856 15.887 14.707 16.1083 14.325L16.2917 14C16.5123 13.6175 16.5721 13.1632 16.4581 12.7366C16.344 12.3101 16.0654 11.9463 15.6833 11.725L15.5583 11.6583C15.304 11.5115 15.093 11.3 14.9466 11.0454C14.8003 10.7908 14.7238 10.502 14.725 10.2083V9.79163C14.7238 9.49794 14.8003 9.20917 14.9466 8.95454C15.093 8.69991 15.304 8.48847 15.5583 8.34163L15.6833 8.26663C16.0654 8.04533 16.344 7.68149 16.4581 7.25496C16.5721 6.82843 16.5123 6.37407 16.2917 5.99163L16.1083 5.67496C15.887 5.29291 15.5232 5.01427 15.0967 4.90022C14.6701 4.78616 14.2158 4.84601 13.8333 5.06663L13.7083 5.13329C13.455 5.27957 13.1676 5.35658 12.875 5.35658C12.5824 5.35658 12.295 5.27957 12.0417 5.13329L11.6833 4.92496C11.4302 4.77882 11.22 4.5687 11.0737 4.31566C10.9275 4.06262 10.8503 3.77556 10.85 3.48329V3.33329C10.85 2.89127 10.6744 2.46734 10.3618 2.15478C10.0493 1.84222 9.62536 1.66663 9.18334 1.66663Z" stroke="#9DA6B0" stroke-width="1.67" stroke-linecap="round" stroke-linejoin="round"/>
<path d="M9 12.5C10.3807 12.5 11.5 11.3807 11.5 9.99996C11.5 8.61925 10.3807 7.49996 9 7.49996C7.61929 7.49996 6.5 8.61925 6.5 9.99996C6.5 11.3807 7.61929 12.5 9 12.5Z" stroke="#9DA6B0" stroke-width="1.67" stroke-linecap="round" stroke-linejoin="round"/>
</svg>
